<svg xmlns="http://www.w3.org/2000/svg" viewBox="0 0 453.26 294.24"><defs><style>.cls-1{fill:#76a5a5;}.cls-2{fill:#edb6a0;}.cls-3{fill:#eaae96;}.cls-4{fill:#78a6a6;}.cls-5{fill:#3d6d72;}.cls-6{fill:#d38b70;}.cls-7{fill:#3d6f72;}.cls-8{fill:#3e6e72;}.cls-9{fill:#406f72;}</style></defs><g id="Layer_2" data-name="Layer 2"><g id="Layer_1-2" data-name="Layer 1"><path class="cls-1" d="M246.25,185.06c-12.63-27.57-11.06-55.56-2.47-83.75,2.14-7,5.05-13.76,6.37-21,1.83-10-2.2-15.21-12.31-16.25-8.09-.82-15.71-2.82-21.55-9.09A23.16,23.16,0,0,1,210.59,44c-1.73-7.8,1.08-12.43,8.75-14.76,2.7-.82,5.45-1.49,8.18-2.24,5.46-1.51,9.73-3.65,11.61-10.09C241.42,9.1,248,4.76,255.72,2.48A66.2,66.2,0,0,1,280.44.31c10.72.94,17.92,7.71,23.58,16,5.36,7.82,9.28,16.53,12.72,25.39,2.19,5.65,1.83,11.12-2.16,16a5.37,5.37,0,0,0-1.13,4.86c3.89,25.74,18.92,45.24,35,64.38,18.07,21.55,36.31,43.09,48.27,68.87,10,21.55,14.18,43.92,6.58,67.34-.46,1.41-1.85,3.32-.38,4.59s3.14.14,4.71-.43c17.32-6.29,25.49-19.91,29.44-36.84.83-3.55.94-7.29,2-10.76,1.42-4.75,4.4-5.2,7.49-1.31,6.86,8.61,7.68,18.72,6,28.93-3.56,21.87-22.74,38.61-45.91,41.6-32.34,4.19-64.8,5.52-97.37,5a82.2,82.2,0,0,1-11.41-1c-6.27-1-8.92-7-5.59-12.41a13.48,13.48,0,0,1,11.18-6.51c7.93-.56,15.87-1.07,24.09-1.62-.16-2.29-2.2-2.8-3.55-3.7-15.2-10.05-28.33-22.08-37.27-38.22-.45-.83-.71-2.08-1.91-2.08-1.57,0-1.56,1.45-1.88,2.51-3.64,12.3-5.8,24.94-8.79,37.38-.82,3.4-1.52,6.82-2.38,10.2-2.71,10.61-5.89,13.48-16.79,14.21-6.3.42-12.64.14-19,.18-3.08-2.82-2.61-5.84-.39-8.84a27.62,27.62,0,0,1,5.57-5.65c4.68-3.5,6.9-8.17,7.78-13.86,1.26-8.2,1.43-16.49,2.53-24.68.22-1.64.12-3.32.87-4.86,4.46-3.16,4.77-7.59,3.78-12.41a20.66,20.66,0,0,1-.52-6.94c.85-6-1.87-11.33-3.28-16.84-1.92-7.43-4.13-14.66-1.47-22.34.79-2.31,0-4.6-.41-6.88-.81-4.41-.35-8.59,2.29-12.38a16.57,16.57,0,0,0,2.65-10.93c-.1-1.53-.51-3.23-2.51-3a2.93,2.93,0,0,0-2.59,3.18c0,2.49.36,5,.24,7.47-.12,2.69-.1,5.53-3.29,6.6-3.56,1.2-4.3-1.93-5.76-4.8.3,4.53.91,8.07,3.67,10.91a7.21,7.21,0,0,1,1.69,4.62,44,44,0,0,0,1.8,11.23C249.5,185.11,248.71,185.68,246.25,185.06Z"/><path class="cls-2" d="M112.9,275.18c1.54,1.24,3.09,2.48,4.62,3.74,3.15,2.58,4.56,6.09,3.27,9.79-1.34,3.85-5.1,5.16-8.93,5.17-10.13,0-20.25,0-30.41-.65-11.6-.78-23.31,0-35-.32C18.2,292.16.58,274.3,0,246c-.26-13.09,3.57-25.22,7.42-37.39,2.79-8.82,5.89-17.52,6.48-26.87.48-7.48-2.43-13.53-7.43-18.8-1.49-1.57-3.11-3-4.45-4.72-2-2.51-2.87-5.3-.87-8.27s4.75-3.29,7.94-2.42c8.17,2.23,13,8.27,17.06,15.09,6.51,10.78,5.92,22.16,2.73,33.71-3.32,12-9.42,23.16-11.14,35.56-1.52,11-2.27,22.24,4.91,32.15a29.81,29.81,0,0,0,8.48,7.55c.66.43,1.3,1.29,2.19.79,1.12-.62.78-1.75.52-2.66C31.72,262.27,32,254.6,32,247c-.1-28.33,12.27-50.51,33.16-68.85,7.46-6.55,16.41-10.66,24.19-16.61,6.76-5.17,10.82-11.57,10.77-20.26,0-4.17.15-8.34-.11-12.49a45,45,0,0,1,4.8-23.6c2.92-5.85,3.12-12.79,6.22-18.79a58.59,58.59,0,0,1,9.84-13.66c.85-.89,1.61-2.47,3.21-1.81s1.92,2.12,2,3.73c.24,4.75.58,9.49,3,15,1.81-3.68,3.13-6.59,4.68-9.36.61-1.1,1.45-2.65,2.9-2.43,1.72.25,1.6,2.07,1.4,3.27-1.53,8.8,1.1,14.21,10.69,16.18,3.58.74,7,4,8.85,8.2,1.71,3.78,6.36,4.91,9.14,8.18,6.47,7.61,1.95,15.19-3.68,20.33a22,22,0,0,1-5.15,3c-7.19,3.6-10.54,10.55-8.15,18.22s5.4,15.3,8,23c4.07,12,4,24.26-2,35.21-5.64,10.32-7.9,21-8.45,32.33-.38,7.93-.69,15.91.59,23.89.75,4.62,2.71,7.26,7.17,8.31a19.44,19.44,0,0,1,4.13,1.7c6.88,3.44,4.32,10.82-.48,12.81-7,2.93-19.24,3.4-24.46-6.78-3.18-6.2-6.68-12.25-8.08-19.14-.85-4.2-2.38-3.66-4.8-1.27-3.07,3-6.25,5.92-9.38,8.88-2.58,3.34-6.21,2.27-9.07,1.31s-1.62-4-.75-6.07a41.12,41.12,0,0,0,3.47-18c-.62-12.09-9-23.68-20.14-27.26,5.67,3.44,10.86,7.18,14.13,13.3,5.81,10.92,6.91,21.69.89,32.82-2.46,4.54-2,5.46,3,5.69C106.66,276.06,109.86,276.41,112.9,275.18Z"/><path class="cls-3" d="M135,37.59a16.61,16.61,0,0,1,10.43-16.08c6.74-2.79,14.4-.78,20.27,6.51,3.23,4,5,3.95,8,.15s7.15-6.63,12.18-7.11c13.36-1.27,20.63,8,16.86,21.33-2,7.15-5.3,13.49-10.89,18.66-6,5.53-11.74,11.33-17.31,17.28-2.78,3-5.1,3-8,.48-9.2-8.14-18.86-15.88-26-26C137.44,48.4,135,43.35,135,37.59Z"/><path class="cls-4" d="M233.1,292.92c-4,0-8,.3-11.94,0-7.28-.6-9.81-6.51-5.32-12.35,2.13-2.76,4.69-5.33,8.11-6.41,8.14-2.59,11.43-8.67,13.25-16.47,4.14-17.77,7-35.74,9.92-53.73,2.29.33,2.18,2.25,2.37,3.8,2.32,19.78.76,39.44-1.8,59.08-.66,5-3.75,8.41-7.44,11.36C235.49,282,231.91,286.27,233.1,292.92Z"/><path class="cls-4" d="M246.25,185.06c2.11.8,1.92-.51,1.42-1.7-1.43-3.46-2.84-6.7-2.16-10.8a6,6,0,0,0-3.21-6.67c-1.87-.88-2.41-6.54-1.94-12.07,1.78.63,3.42,1.14,3.65,3.34.15,1.32.07,2.94,2.09,2.59a3.1,3.1,0,0,0,2.92-3.42c-.12-3,.17-6.05-.45-8.92-.89-4.08,1.38-5.72,4.5-6.22,3.53-.57,4,2.35,3.93,4.95-.06,4.8-.52,9.29-4,13.4-1.88,2.21-2.25,6-1.17,9.42,1.17,3.69.89,7.08-.45,11-1.81,5.31.05,11.13,1.53,16.47,1.84,6.61,4.75,12.87,4.23,20.05-.26,3.57.45,7.24.93,10.85.53,4-.73,6.74-4.93,7.65-2.4-2.27-1.73-5.26-1.69-8,.15-11.5.08-22.95-3.24-34.11a7,7,0,0,0-1-2.77Z"/><path class="cls-5" d="M247.18,190.12c3.13,1.51,3,4.76,3.76,7.41,2.82,10.17,2,20.63,2.1,31,0,2.15.07,4.3.1,6.45-.63,10.88-1.45,21.74-3.1,32.51A16.17,16.17,0,0,1,244,278c-1.68,1.34-3.18,2.9-4.9,4.18-3.78,2.83-5.06,6.31-3.16,10.76H233.1c-3.2-3-2.38-6.13-.28-9.38,2.22-3.44,5.45-5.82,8.49-8.37a14.09,14.09,0,0,0,5-9.81c2.52-19.83,3.45-39.68,1.51-59.61a6.65,6.65,0,0,0-.74-1.81Z"/><path class="cls-6" d="M112.9,275.18c-4.74,3.73-10.12,1.71-15.16,1.28-2.25-.2-1.27-2.71-.35-4.06,9.1-13.23,6.8-25.87-1.65-38.36-3-4.5-7.93-6.26-12.17-9-.8-.52-2.1-.61-1.67-2,.36-1.14,1.52-1.18,2.52-1.09a17.64,17.64,0,0,1,9.39,4.27c13,10.6,16.85,27.72,9.7,43-2.29,4.92-1.78,5.7,3.59,5.67a11.23,11.23,0,0,0,4.87-.83Z"/><path class="cls-7" d="M311.93,225.74c-.45,13.57,6.28,23,14.1,31.79,3.42,3.85,7.4,7.19,11,10.87,1.09,1.1,3.46,2.39,2.26,3.9-1.53,1.91-3.87.36-5.28-.9-4.6-4.07-9.57-7.93-13.34-12.71-7.56-9.57-14-19.87-13.69-32.84.33-16,10.7-31.37,25.19-36.93a18.45,18.45,0,0,1,14.09.29c1.19.5,2.52,1.43,2.1,3s-1.93.92-3,.91C326.54,193,311.9,207.72,311.93,225.74Z"/><path class="cls-8" d="M313,60.83C304.4,70.11,296.2,77.41,283.93,77c-5.9-.21-9.67-4.24-11.62-9.54-4.37-11.8-3-23.86-1.09-35.89.2-1.19.73-2.47,2.22-2.06s1.22,1.7,1,2.92a78.78,78.78,0,0,0,.38,29.2c2.17,10,9.11,13.67,18.41,9.4a75,75,0,0,0,13.32-7.8A9.47,9.47,0,0,1,313,60.83Z"/><path class="cls-9" d="M288.92,199.5c.4,8.39-1.8,16.45-3,24.64-.15,1.06-.22,2.66-1.9,2.26-1.19-.29-.92-1.68-.8-2.58a219.25,219.25,0,0,0,2-34.26c0-1,.11-2.23,1.29-2.38,1.62-.2,1.61,1.31,1.9,2.39C289.29,192.84,288.75,196.19,288.92,199.5Z"/></g></g></svg>